<?xml version="1.0" encoding="UTF-8"?>
<svg id="Warstwa_1" data-name="Warstwa 1" xmlns="http://www.w3.org/2000/svg" viewBox="0 0 56.93 35.71">
  <defs>
    <style>
      .cls-1 {
        fill: #e277a9;
      }
    </style>
  </defs>
  <g id="bow">
    <path id="Path_20" data-name="Path 20" class="cls-1" d="m0,7.58l.19,7.45c.16,6.39,6.4,10.5,11.79,7.76l7.64-3.88c2.55-1.36,4.13-4.03,4.09-6.92v-3.04c.06-2.59-1.62-4.9-4.09-5.65L8.08.12s-.06-.01-.08-.02C3.74-.65-.11,2.95,0,7.58h0Z"/>
    <path id="Rectangle_10" data-name="Rectangle 10" class="cls-1" d="m28.46,4.26h0c2.09,0,3.79,1.7,3.79,3.79v5.32c0,2.09-1.7,3.79-3.79,3.79h0c-2.09,0-3.79-1.7-3.79-3.79v-5.32c0-2.09,1.7-3.79,3.79-3.79Z"/>
    <path id="Path_21" data-name="Path 21" class="cls-1" d="m56.93,7.58l-.19,7.45c-.16,6.39-6.4,10.5-11.79,7.76l-7.64-3.88c-2.55-1.36-4.13-4.03-4.09-6.92v-3.04c-.06-2.59,1.62-4.9,4.09-5.65L48.85.12s.06-.01.08-.02c4.26-.75,8.11,2.85,8,7.48h0Z"/>
    <path id="Path_22" data-name="Path 22" class="cls-1" d="m23.71,17.16s-2.18,3.3-8.87,5.81l-5,11.61,5.35-3.38,2.39,4.5,6.13-18.55h0Z"/>
    <path id="Path_23" data-name="Path 23" class="cls-1" d="m33.86,17.16s2.18,3.3,8.87,5.81l5,11.61-5.36-3.38-2.39,4.5-6.13-18.55h0Z"/>
  </g>
</svg>